<svg width="48" height="48" viewBox="0 0 48 48" fill="none" xmlns="http://www.w3.org/2000/svg">
  <circle cx="24" cy="9" r="5" stroke="#111111" stroke-width="2.4"/>
  <path d="M18 22c1.1-3.2 3.2-5 6-5s4.9 1.8 6 5" stroke="#111111" stroke-width="2.4" stroke-linecap="round"/>
  <circle cx="12" cy="18" r="4" stroke="#111111" stroke-width="2.2"/>
  <circle cx="36" cy="18" r="4" stroke="#111111" stroke-width="2.2"/>
  <path d="M5 35c.9-6.2 4.1-9.2 9-9.2 3.8 0 6.3 1.8 7.6 5.1" stroke="#111111" stroke-width="2.4" stroke-linecap="round"/>
  <path d="M26.4 30.9c1.3-3.3 3.8-5.1 7.6-5.1 4.9 0 8.1 3 9 9.2" stroke="#111111" stroke-width="2.4" stroke-linecap="round"/>
  <path d="M13 39c1-7 4.9-10.5 11-10.5S34 32 35 39" stroke="#111111" stroke-width="2.6" stroke-linecap="round"/>
  <circle cx="34" cy="6" r="2.6" stroke="#111111" stroke-width="1.9"/>
  <path d="M34 2.5v7M30.5 6h7" stroke="#111111" stroke-width="1.8" stroke-linecap="round"/>
</svg>
